<?xml version="1.0" standalone="no"?>
<!DOCTYPE svg PUBLIC "-//W3C//DTD SVG 20010904//EN"
 "http://www.w3.org/TR/2001/REC-SVG-20010904/DTD/svg10.dtd">
<svg version="1.0" xmlns="http://www.w3.org/2000/svg"
 width="713.000000pt" height="713.000000pt" viewBox="0 0 713.000000 713.000000"
 preserveAspectRatio="xMidYMid meet">
<metadata>
Created by potrace 1.14, written by Peter Selinger 2001-2017
</metadata>
<g transform="translate(0.000000,713.000000) scale(0.100000,-0.100000)"
fill="#000000" stroke="none">
<path d="M3190 5975 c0 -14 5 -25 10 -25 6 0 10 -6 10 -14 0 -9 -12 -13 -37
-12 -33 1 -38 4 -35 24 5 33 -6 27 -22 -13 -17 -39 -30 -43 -65 -19 -23 17
-23 17 -8 -7 11 -16 13 -29 7 -39 -8 -12 -12 -11 -30 8 -12 12 -26 19 -32 16
-7 -4 -5 -10 6 -16 21 -12 21 -32 0 -24 -18 7 -51 -21 -38 -34 5 -4 18 -10 29
-12 14 -2 21 -12 22 -33 4 -53 6 -55 18 -45 14 12 25 3 19 -15 -3 -7 9 -23 26
-35 33 -23 54 -58 63 -105 l6 -30 -14 32 c-8 17 -20 35 -26 39 -9 5 -10 2 -4
-12 7 -16 15 -97 16 -176 0 -23 -46 -117 -76 -153 -19 -24 -26 -27 -34 -16
-10 15 -21 12 -61 -16 l-25 -17 20 24 c45 54 49 61 32 54 -9 -3 -23 -17 -32
-31 -9 -13 -19 -23 -21 -20 -2 2 21 42 51 88 63 95 101 200 91 253 -7 37 -44
97 -64 104 -7 2 -1 -13 13 -33 16 -24 25 -51 24 -74 l0 -36 -14 38 c-35 94
-93 135 -207 144 -67 6 -70 7 -65 30 5 25 -7 40 -18 23 -3 -5 -17 -10 -31 -10
-15 0 -24 -6 -24 -15 0 -8 -5 -15 -11 -15 -5 0 -7 -6 -3 -12 6 -10 3 -9 -8 0
-9 8 -14 20 -11 28 3 8 -1 14 -11 14 -9 0 -16 -8 -16 -20 0 -14 -7 -20 -21
-20 -14 0 -19 5 -16 14 5 12 1 13 -16 7 -12 -5 -21 -15 -19 -24 1 -8 -4 -20
-12 -26 -12 -10 -15 -6 -21 18 -8 38 -25 49 -37 26 -8 -14 -12 -15 -18 -4 -7
10 -12 10 -25 -1 -15 -12 -19 -12 -30 3 -15 21 -35 22 -35 3 0 -8 -18 -23 -40
-33 -24 -11 -40 -25 -40 -35 0 -10 4 -18 10 -18 5 0 6 -8 3 -17 -4 -11 -8 -12
-11 -5 -2 7 -10 12 -17 12 -15 0 -28 -28 -19 -42 5 -7 -2 -9 -18 -6 -21 4 -24
1 -20 -14 3 -14 0 -17 -12 -12 -9 3 -16 10 -16 15 0 5 -7 9 -15 9 -8 0 -15 -4
-15 -9 0 -5 -9 -13 -21 -16 -12 -4 -18 -12 -15 -21 3 -8 1 -14 -4 -14 -6 0
-10 -5 -10 -12 0 -6 -8 -20 -17 -31 -21 -23 -59 -87 -108 -181 -19 -38 -42
-77 -50 -86 -8 -9 -15 -21 -15 -27 0 -6 -25 -21 -55 -33 -30 -12 -55 -29 -55
-36 0 -8 -6 -14 -14 -14 -10 0 -14 -10 -13 -32 2 -35 -2 -37 -53 -22 l-25 7
22 -24 23 -25 -23 -3 c-12 -2 -41 -3 -65 -3 l-44 -1 27 -17 c62 -41 -14 -31
-195 24 -108 34 -127 51 -45 42 33 -4 69 -8 79 -9 32 -3 28 20 -6 36 -40 19
-164 48 -231 54 -68 7 -79 -5 -72 -79 6 -67 33 -128 76 -171 16 -16 29 -32 29
-36 0 -12 100 -111 112 -111 5 0 22 -13 36 -28 17 -17 50 -35 87 -46 93 -27
125 -43 125 -64 0 -11 23 -42 50 -71 28 -29 48 -56 45 -61 -3 -5 -19 -11 -35
-15 -28 -6 -30 -10 -28 -42 2 -25 -3 -38 -16 -45 -13 -7 -16 -17 -11 -39 7
-30 5 -32 -47 -43 -35 -8 -39 -24 -41 -156 -1 -100 1 -112 21 -133 21 -22 21
-26 14 -225 -7 -193 -2 -252 19 -252 18 0 37 -64 35 -114 -2 -48 -21 -76 -52
-76 -13 0 -63 -119 -84 -200 -6 -25 -20 -54 -30 -65 -11 -11 -31 -47 -47 -80
-23 -49 -28 -75 -29 -140 -1 -76 -4 -86 -58 -195 -38 -78 -69 -126 -95 -150
-73 -65 -142 -194 -245 -458 -105 -268 -125 -340 -167 -592 -24 -140 -28 -251
-19 -515 4 -134 3 -143 -22 -207 -15 -38 -26 -68 -24 -68 2 0 15 11 30 25 15
14 24 25 20 25 -4 0 5 9 19 20 14 11 33 20 44 20 10 0 23 4 29 8 11 7 49 86
42 88 -2 0 2 7 9 15 7 9 10 33 8 61 -4 35 0 51 14 70 34 42 54 105 47 143 -6
28 -2 41 13 62 30 37 28 56 -4 41 -39 -18 -47 -2 -35 68 29 160 43 208 74 243
39 45 51 67 78 139 11 31 29 68 38 82 26 38 191 365 227 450 18 41 52 128 77
193 25 65 59 137 75 160 38 56 135 250 172 346 48 123 120 322 136 376 8 28
21 54 29 58 8 5 14 25 14 50 0 41 11 95 24 128 5 12 0 18 -16 23 -18 5 -20 8
-9 15 26 17 -6 20 -39 3 -38 -19 -51 -42 -24 -42 14 0 15 -3 6 -12 -7 -7 -12
-25 -12 -40 0 -49 -38 -199 -84 -333 -57 -167 -123 -318 -230 -530 -47 -93
-95 -195 -107 -225 -11 -30 -33 -73 -48 -95 -15 -22 -42 -65 -59 -96 -41 -78
-62 -110 -88 -139 -37 -42 -152 -282 -168 -350 -14 -61 -38 -101 -52 -87 -3 3
-1 61 5 129 12 139 40 225 109 342 23 38 53 107 68 153 21 68 34 90 61 111 36
28 127 202 173 331 15 40 37 77 60 100 44 43 104 187 94 226 -4 16 1 36 14 57
11 18 32 69 47 113 15 44 34 87 42 96 12 15 24 68 38 169 15 115 44 206 72
228 16 11 16 12 0 12 -21 0 -21 7 -2 26 9 10 13 24 9 40 -3 13 -1 31 5 38 8
10 9 16 2 21 -13 8 -3 95 13 113 13 13 46 7 46 -9 0 -4 -10 -15 -22 -24 -20
-13 -21 -17 -8 -25 8 -5 21 -10 29 -10 10 0 7 -7 -9 -25 -20 -21 -21 -25 -6
-31 20 -8 21 -30 1 -38 -27 -10 -16 -26 19 -26 23 0 42 8 60 26 28 29 32 44
15 61 -8 8 -5 14 10 22 23 13 28 47 9 54 -10 3 -9 9 3 23 9 10 16 34 16 52 0
21 7 37 19 46 10 8 16 18 11 22 -4 4 0 16 10 26 9 10 17 26 18 36 3 32 16 60
30 66 8 3 12 12 9 19 -7 20 23 29 47 14 25 -15 30 -32 34 -114 5 -109 11 -152
23 -166 7 -8 13 -28 15 -45 2 -18 7 -35 10 -39 4 -3 7 -16 7 -28 0 -11 4 -25
9 -31 5 -5 11 -25 12 -44 2 -19 7 -40 11 -46 6 -8 -10 -19 -47 -34 -31 -12
-54 -25 -51 -27 2 -2 21 3 41 11 53 22 65 20 71 -14 4 -16 13 -35 20 -41 8 -6
14 -24 14 -40 0 -16 7 -32 18 -38 16 -10 15 -10 -3 -11 -15 -1 -12 -4 11 -14
33 -15 74 -78 54 -84 -6 -2 -1 -16 11 -34 l21 -29 -20 -15 c-13 -9 -19 -21
-15 -30 3 -8 -4 -26 -17 -40 -27 -28 -20 -31 16 -8 23 15 24 15 18 -1 -4 -10
-1 -21 7 -26 12 -8 11 -12 -4 -23 -15 -12 -16 -14 -2 -20 8 -3 15 -17 15 -31
0 -14 5 -25 10 -25 6 0 8 -11 4 -25 -4 -18 2 -38 25 -73 17 -27 31 -54 31 -61
0 -7 4 -10 10 -6 5 3 16 -8 24 -24 12 -23 13 -31 3 -35 -7 -3 -3 -7 10 -11 13
-4 20 -11 17 -16 -3 -5 1 -9 8 -9 8 -1 6 -6 -6 -15 -16 -12 -17 -15 -4 -15 34
0 32 -92 -3 -110 -14 -8 -21 -5 -32 10 l-14 20 -18 -20 c-20 -22 -41 -26 -47
-9 -3 8 -11 8 -27 -2 -19 -11 -25 -11 -28 -1 -3 7 -11 19 -19 26 -8 8 -14 26
-14 40 0 22 -4 26 -30 26 -35 0 -67 27 -62 54 7 33 -13 37 -48 11 -34 -25 -51
-31 -49 -17 3 20 -3 31 -20 37 -12 3 -21 17 -23 33 -2 15 -12 31 -25 38 -13 6
-20 14 -16 17 3 4 -10 13 -30 22 -25 10 -34 20 -31 32 2 10 0 25 -6 33 -9 13
-12 12 -25 -5 -27 -34 -88 -159 -101 -205 -29 -102 -76 -225 -87 -229 -26 -9
-66 -60 -76 -97 -6 -21 -15 -77 -20 -124 -6 -47 -18 -141 -26 -210 -18 -139
-14 -197 15 -228 26 -27 25 -32 -2 -29 -18 2 -26 -8 -44 -53 -12 -30 -41 -77
-64 -103 -41 -47 -53 -74 -70 -169 -11 -59 -31 -90 -98 -154 -56 -54 -80 -92
-102 -159 -7 -22 -30 -65 -52 -95 -48 -66 -117 -172 -140 -213 -9 -16 -32 -48
-50 -71 -20 -25 -33 -53 -34 -72 -2 -37 -35 -86 -70 -105 -13 -7 -24 -16 -24
-21 0 -4 -9 -8 -20 -8 -13 0 -20 -7 -20 -20 0 -29 -1 -30 -27 -77 -13 -24 -20
-43 -16 -43 4 0 2 -5 -5 -12 -7 -7 -12 -22 -12 -34 0 -13 -4 -26 -10 -29 -5
-3 -21 -30 -35 -58 -13 -29 -43 -73 -67 -99 -73 -79 -98 -112 -98 -131 0 -14
6 -16 38 -11 32 5 41 2 70 -25 36 -35 38 -41 18 -41 -7 0 -19 -7 -26 -15 -13
-16 -61 -17 -71 -1 -7 9 -45 -53 -41 -66 1 -5 -2 -8 -6 -8 -15 0 -72 -52 -66
-61 2 -5 545 -9 1206 -9 l1201 0 -7 55 c-3 30 -9 81 -13 112 l-6 58 36 -30 36
-30 -2 -80 -2 -80 429 -3 c399 -2 430 -1 442 15 7 10 14 14 14 9 0 -5 6 -4 13
1 20 15 71 15 102 -1 27 -14 30 -13 57 10 31 25 35 26 110 29 38 1 54 7 77 29
41 39 115 48 137 17 10 -13 26 -21 45 -21 41 0 36 -13 -11 -28 -56 -17 -66
-15 -39 8 l24 19 -35 0 c-44 0 -79 -24 -62 -41 10 -10 8 -16 -10 -30 -22 -17
-15 -18 187 -18 l210 0 -28 24 c-36 31 -27 54 24 62 21 4 39 8 39 10 0 19 -71
98 -89 100 -36 3 -73 20 -102 47 -60 55 -111 90 -148 103 l-36 12 28 7 c37 10
34 19 -15 41 -45 20 -54 19 -50 -9 5 -25 -19 -21 -64 11 -84 59 -149 84 -211
81 -96 -5 -133 0 -133 15 0 8 -7 17 -16 20 -10 4 -13 13 -9 25 3 10 -1 24 -10
31 -8 7 -15 19 -15 27 0 11 -6 13 -22 9 -22 -7 -210 -35 -236 -36 -17 0 -33
44 -36 103 -2 26 -6 50 -9 53 -3 3 -1 20 4 37 6 21 5 33 -1 35 -5 2 -10 8 -10
13 0 6 5 7 10 4 6 -3 10 -2 10 4 0 5 -4 12 -8 15 -8 5 -15 154 -13 266 2 58 5
68 33 97 18 18 45 37 62 43 58 18 215 39 353 46 220 11 190 23 -62 25 -126 2
-237 3 -245 5 -8 1 -82 2 -163 3 l-148 1 3 27 3 28 93 3 92 3 0 72 c2 342 13
884 20 890 8 9 30 -67 30 -102 0 -12 5 -21 10 -21 13 0 30 43 30 74 0 13 7 41
16 62 15 34 18 37 25 19 4 -11 8 -239 8 -507 l1 -487 410 -3 c376 -3 411 -4
427 -21 25 -25 6 -51 -39 -55 -34 -3 -36 -5 -41 -45 -7 -56 -54 -394 -67 -479
-16 -104 -16 -104 28 -102 l37 3 -37 -11 c-21 -6 -38 -17 -38 -25 0 -16 1 -16
34 -3 26 9 26 9 10 -15 -17 -26 -34 -33 -34 -14 0 5 -4 7 -10 4 -6 -3 -10 -23
-10 -45 0 -33 4 -39 30 -49 17 -5 30 -6 30 -2 0 5 30 0 68 -11 37 -11 78 -21
91 -23 30 -4 53 17 45 42 -5 15 -3 15 13 -3 10 -12 30 -27 43 -34 l25 -13 -22
25 c-29 30 -30 48 -3 23 20 -18 21 -18 14 -1 -7 18 -6 18 19 2 19 -13 30 -15
45 -7 16 8 23 7 33 -7 13 -16 12 -16 -6 -2 -19 14 -19 14 -6 -3 10 -13 17 -15
27 -6 7 6 18 8 24 4 5 -3 10 -2 10 4 0 6 17 1 38 -11 32 -20 35 -20 22 -4 -15
19 -14 19 18 2 l33 -17 -16 30 -15 31 74 -40 c45 -24 77 -36 81 -30 3 5 3 10
-1 10 -3 0 -1 7 6 15 7 8 9 22 6 32 -6 16 -6 16 12 0 10 -9 22 -14 25 -10 4 3
16 -2 26 -11 11 -10 25 -15 30 -11 6 3 15 -5 20 -18 6 -14 15 -28 22 -33 9 -5
10 -2 6 9 -4 12 -1 17 9 17 12 0 15 7 10 28 l-6 27 15 -27 c17 -30 35 -37 35
-13 0 20 16 19 24 -1 5 -13 9 -14 20 -5 11 9 15 7 19 -10 5 -18 9 -20 20 -11
12 10 14 7 11 -15 -4 -25 -2 -24 10 7 l14 35 1 -34 c1 -35 5 -36 54 -16 14 6
17 2 17 -25 0 -26 3 -30 13 -21 8 6 17 8 20 4 4 -3 13 0 21 6 12 10 14 9 9 -8
-7 -28 1 -26 31 6 l25 27 -6 -25 -6 -24 23 20 c20 17 23 18 17 3 -4 -12 -1
-18 8 -18 8 0 15 -4 15 -10 0 -5 7 -10 16 -10 10 0 14 -6 11 -14 -4 -10 -1
-13 7 -10 7 3 19 -2 26 -11 12 -14 11 -18 0 -25 -8 -5 -11 -12 -7 -17 5 -4 16
2 25 14 12 16 23 21 40 17 14 -4 22 -2 22 6 0 10 3 10 15 0 8 -7 15 -18 15
-24 0 -7 6 -20 13 -29 10 -14 18 -15 45 -8 44 13 65 4 59 -25 -5 -28 -1 -30
20 -8 9 8 19 12 22 7 10 -13 55 -34 79 -36 12 -1 21 -6 19 -11 -2 -5 4 -17 12
-26 14 -14 17 -14 27 -1 13 17 42 8 51 -16 4 -10 17 -28 31 -41 19 -18 30 -21
60 -16 21 4 40 8 44 10 20 12 -31 94 -58 94 -39 0 -64 69 -32 89 22 14 24 64
3 81 -8 7 -15 18 -15 25 0 6 -9 20 -19 29 -15 13 -18 24 -12 39 13 36 3 67
-39 117 -22 26 -40 53 -40 58 0 6 -6 15 -14 19 -7 4 -17 18 -20 30 -6 19 -2
25 18 33 29 11 31 17 14 57 -6 15 -12 33 -13 38 -7 31 -37 84 -62 110 -16 17
-35 45 -42 63 -7 17 -20 32 -28 32 -27 0 -65 -34 -79 -71 -20 -49 -65 -90 -87
-77 -18 10 -45 -1 -67 -26 -44 -54 -104 39 -103 162 1 73 0 74 -29 84 -29 10
-30 12 -23 57 4 25 9 72 11 103 2 39 13 78 34 120 39 77 49 148 26 167 -12 10
-14 23 -10 52 7 44 -4 64 -42 73 -19 5 -35 -1 -65 -24 -42 -34 -46 -33 -27 3
29 51 81 95 135 113 68 23 113 70 113 117 0 50 -92 220 -115 213 -5 -1 -20
-25 -33 -52 -13 -27 -29 -60 -36 -74 -6 -14 -21 -26 -32 -28 -17 -2 -122 52
-147 77 -9 9 43 113 74 147 10 11 19 25 19 31 0 19 40 46 78 52 35 6 37 8 34
41 -4 37 -42 118 -78 165 -12 17 -31 54 -42 83 -23 60 -48 102 -61 102 -5 0
-12 -30 -16 -67 -17 -181 -65 -317 -121 -344 -46 -22 -46 -37 -13 226 27 219
34 391 18 411 -6 8 -23 14 -38 14 -14 0 -44 14 -65 30 -47 36 -60 37 -80 8
-14 -19 -14 -25 -2 -43 12 -18 12 -23 -1 -31 -22 -13 -6 -63 23 -74 28 -11 40
-50 25 -78 -8 -14 -8 -29 -1 -47 20 -53 8 -151 -35 -281 -33 -100 -87 -167
-102 -128 -3 9 2 50 11 91 10 41 15 77 12 80 -3 3 3 20 13 37 10 17 22 60 25
96 4 36 15 89 25 119 24 74 17 108 -28 135 -20 11 -38 21 -41 21 -3 0 -11 4
-19 9 -9 6 -17 3 -23 -8 -5 -9 -18 -16 -28 -16 -24 0 -29 -10 -20 -35 16 -44
2 -55 -60 -49 -33 2 -61 0 -65 -5 -7 -13 -63 -3 -93 16 -14 9 -34 12 -48 9
-14 -4 -37 0 -54 9 -16 8 -33 15 -37 14 -4 -1 -37 -1 -73 1 -46 1 -59 4 -45
10 17 7 17 9 3 9 -17 1 -23 16 -20 54 1 10 -5 17 -16 17 -28 0 -98 -22 -84
-27 28 -10 3 -67 -33 -75 -11 -2 -19 -10 -17 -18 7 -31 -10 -70 -30 -70 -17 0
-19 4 -13 28 15 56 19 113 11 157 -6 33 -34 120 -48 148 -5 10 -6 22 -3 27 4
6 2 10 -3 10 -6 0 -15 13 -20 29 -11 30 -76 101 -93 101 -6 0 -8 4 -5 8 3 5
-7 17 -22 28 -65 48 -77 61 -65 75 9 11 6 14 -16 15 -29 1 -101 43 -101 59 0
6 -10 21 -23 35 -12 14 -33 40 -46 58 -17 24 -27 30 -34 23 -17 -17 -24 -13
-23 12 1 17 -4 21 -21 19 -17 -2 -23 2 -23 15 0 14 -2 15 -9 4 -7 -11 -13 -8
-27 13 -15 23 -19 25 -26 12 -11 -19 -38 -21 -38 -3 0 6 -6 3 -12 -8 -12 -19
-12 -19 -19 5 l-7 25 -1 -27 c-1 -18 -7 -28 -16 -28 -8 0 -15 -7 -15 -15 0 -8
-7 -15 -15 -15 -9 0 -18 -7 -22 -16 -6 -15 -8 -15 -21 2 -14 18 -14 18 -9 -4
3 -13 1 -20 -5 -16 -5 3 -12 -3 -15 -15 -3 -12 -9 -21 -14 -21 -5 0 -9 -8 -9
-17 0 -14 -2 -15 -9 -5 -6 10 -10 3 -15 -22 -5 -25 -11 -34 -21 -29 -11 3 -15
-2 -15 -18 0 -12 -3 -19 -7 -16 -3 4 -11 -3 -17 -15 -6 -11 -20 -26 -31 -32
-29 -17 -45 -33 -38 -40 4 -3 -1 -6 -10 -6 -9 0 -31 -15 -48 -34 -17 -19 -37
-32 -44 -30 -10 4 -12 -1 -8 -15 3 -14 0 -23 -11 -27 -9 -3 -13 -10 -10 -15 3
-5 0 -9 -5 -9 -6 0 -11 -7 -11 -15 0 -9 -9 -15 -22 -15 -15 0 -19 -3 -11 -8
10 -6 6 -25 -17 -78 -16 -38 -30 -77 -30 -86 0 -10 -8 -18 -17 -18 -13 0 -14
-3 -5 -12 15 -15 16 -74 2 -83 -5 -3 -10 -3 -11 2 -4 41 -6 53 -10 56 -2 2
-20 13 -39 26 l-35 22 40 -6 40 -5 -48 18 c-38 14 -45 20 -35 30 10 10 6 15
-19 24 l-31 11 24 26 c28 31 31 43 7 34 -14 -5 -12 0 6 20 20 22 22 27 8 27
-9 0 -17 7 -17 15 0 8 9 15 21 15 13 0 18 4 13 12 -5 7 -2 9 7 6 41 -17 53
-19 30 -5 -16 10 -20 16 -12 22 9 5 7 11 -6 21 -12 9 -13 13 -5 14 7 0 11 4 7
9 -3 6 4 15 16 22 16 8 18 13 9 19 -7 5 -19 6 -26 3 -33 -12 -18 20 31 68 30
30 55 60 55 68 0 7 6 11 13 8 8 -3 28 8 45 24 31 29 56 23 31 -7 -6 -8 -9 -17
-7 -20 8 -7 48 46 48 64 0 12 4 12 22 -4 21 -19 21 -19 14 0 -6 19 -6 19 12 3
23 -21 32 -21 32 -1 0 8 4 13 9 9 5 -3 11 3 13 12 3 13 9 9 20 -17 13 -28 17
-31 17 -13 1 12 4 30 7 40 4 13 3 14 -4 5 -6 -10 -9 -5 -8 17 1 28 2 29 14 14
6 -9 12 -20 12 -25 0 -4 5 -8 11 -8 5 0 7 5 4 10 -3 6 1 10 11 10 11 0 15 6
11 20 -3 11 -1 23 4 26 5 3 9 -4 9 -15 0 -11 4 -22 9 -25 12 -8 19 122 8 156
-5 15 -7 33 -4 40 2 7 9 -3 16 -22 l11 -35 -6 35 c-3 19 -8 60 -11 90 -6 52
-5 54 12 40 17 -14 17 -14 4 15 -16 33 -17 54 -6 73 5 7 3 12 -4 12 -7 0 -8 4
-2 13 12 16 8 214 -6 250 -15 38 -24 34 -19 -8 5 -42 -5 -45 -29 -9 -15 24
-18 24 -23 8 -4 -11 -15 19 -29 82 -13 54 -27 106 -32 114 -7 11 -8 8 -4 -10
3 -14 9 -47 14 -73 8 -46 8 -47 -10 -31 -10 9 -28 35 -39 58 l-22 41 6 -35 c5
-32 3 -31 -24 20 -27 51 -29 52 -23 20 5 -34 5 -34 -12 -15 -14 17 -16 17 -11
3 10 -34 -5 -18 -24 25 -11 23 -20 36 -20 29 0 -22 -21 -1 -42 42 -17 36 -19
38 -15 11 5 -28 4 -29 -9 -10 -8 11 -21 20 -28 20 -7 0 -24 14 -38 30 -27 33
-143 192 -174 240 -19 29 -19 29 1 21 11 -4 16 -4 13 0 -11 10 11 44 28 44 9
0 12 5 8 12 -5 8 2 9 24 5 26 -5 30 -4 25 10 -4 10 -2 14 5 9 6 -3 13 -2 17 4
4 7 12 7 26 0 10 -6 19 -7 19 -3 0 4 8 -1 16 -12 15 -19 15 -19 8 9 -6 26 -5
27 14 17 15 -8 21 -8 25 2 2 7 17 -1 38 -23 37 -37 69 -49 69 -25 0 23 14 18
50 -15 18 -17 45 -39 60 -50 24 -17 29 -18 34 -5 3 8 1 15 -5 15 -6 0 -7 5 -4
11 5 6 12 4 21 -8 10 -14 13 -15 14 -3 0 11 3 11 12 2 7 -7 16 -12 22 -12 5 0
7 3 3 6 -3 4 1 13 9 21 8 8 12 19 9 24 -4 5 0 6 8 3 9 -3 17 3 21 18 7 22 7
22 16 3 7 -17 9 -15 9 13 1 30 21 48 21 19 0 -7 7 -22 16 -33 8 -10 13 -14 10
-9 -2 6 0 17 5 25 8 11 9 7 7 -17 -5 -34 6 -37 15 -3 3 12 -4 31 -16 47 -20
26 -20 27 -2 13 11 -8 24 -21 28 -28 12 -19 34 2 42 39 7 30 25 40 25 14 0 -8
5 -15 10 -15 6 0 10 -7 10 -15 0 -8 4 -15 9 -15 5 0 7 9 4 20 -3 11 -10 20
-16 20 -14 0 2 15 16 15 7 0 17 -6 24 -15 11 -13 12 -13 13 0 1 8 5 5 11 -9 7
-18 14 -22 34 -17 18 5 25 2 25 -9 0 -18 16 -20 23 -2 3 6 6 2 6 -9 1 -23 24
-48 34 -37 4 3 7 0 7 -7 0 -11 3 -11 12 -2 6 6 11 32 12 57 1 45 1 46 13 18 7
-15 12 -34 13 -42 0 -11 3 -11 15 -1 11 9 15 9 15 1 0 -7 5 -9 10 -6 6 3 10
-3 10 -14 0 -12 5 -21 11 -21 5 0 7 5 4 10 -3 6 1 10 11 10 12 0 15 -6 12 -25
-4 -20 -3 -23 8 -14 8 6 15 21 15 33 1 19 2 19 6 2 5 -17 7 -16 29 10 22 26
24 27 19 7 -8 -29 2 -29 25 -1 l18 23 -5 -26 c-4 -21 -1 -26 14 -24 10 0 24 4
31 9 10 6 11 1 7 -21 -5 -23 -4 -25 5 -10 6 9 18 17 25 17 8 0 15 5 15 10 0
17 28 11 39 -7 6 -10 11 -13 11 -6 0 7 10 10 25 7 15 -2 31 -1 38 3 25 16 38
12 32 -10 l-6 -22 17 22 c13 18 20 20 40 12 17 -6 32 -5 44 1 17 9 18 8 13 -7
-6 -16 -4 -16 9 -5 14 12 16 10 11 -10 -6 -22 -5 -21 16 5 13 15 27 24 33 21
6 -4 6 -10 -1 -17 -18 -18 -13 -29 8 -17 11 5 28 7 38 4 10 -3 24 -8 32 -10
11 -3 11 -7 1 -19 -11 -14 -10 -14 13 -6 17 7 28 7 32 0 4 -5 11 -7 16 -4 5 4
9 3 9 -2 0 -4 -21 -21 -45 -38 -25 -16 -45 -34 -45 -39 0 -5 7 -3 15 4 12 10
19 10 27 2 9 -9 9 -12 -1 -12 -7 0 -9 -4 -6 -10 3 -5 -1 -10 -9 -10 -8 0 -24
-12 -35 -26 -12 -15 -21 -21 -21 -13 0 10 -3 10 -12 1 -7 -7 -16 -12 -22 -12
-5 0 5 16 24 35 19 19 31 35 27 35 -12 0 -67 -63 -66 -74 1 -6 -1 -19 -6 -29
-6 -14 -10 -15 -21 -6 -9 7 -14 8 -14 1 0 -5 -7 -13 -16 -16 -13 -5 -15 -1
-11 21 4 24 -3 19 -54 -36 -32 -36 -59 -58 -59 -50 0 8 -11 -2 -23 -22 -12
-20 -57 -70 -100 -112 -43 -42 -76 -80 -73 -85 3 -5 -1 -18 -9 -28 -13 -18
-14 -18 -8 4 3 12 3 22 0 22 -10 0 -51 -75 -48 -89 1 -7 -2 -10 -8 -6 -6 3
-11 -2 -11 -12 0 -22 -34 -76 -43 -67 -6 6 -27 -60 -27 -87 0 -8 -5 -20 -11
-26 -15 -15 -17 -132 -2 -145 7 -6 10 -22 6 -40 -4 -19 -2 -29 3 -25 11 6 10
-36 -2 -97 -5 -28 -4 -37 4 -32 7 4 14 -3 18 -19 4 -17 10 -23 16 -17 14 14
47 -21 62 -64 l12 -35 23 22 c25 24 111 40 111 21 0 -6 23 -14 50 -18 28 -4
50 -11 50 -16 0 -6 7 -8 15 -4 8 3 21 -1 29 -9 8 -8 19 -15 25 -15 14 0 14
-13 -1 -28 -9 -9 -8 -12 6 -12 11 0 40 -13 66 -29 51 -31 107 -51 128 -44 6 3
12 -2 12 -10 0 -10 7 -13 19 -10 10 3 22 0 25 -6 4 -6 15 -11 24 -11 15 1 15
2 -2 15 -17 13 -14 15 30 29 48 14 49 15 14 15 -23 1 -30 4 -22 10 8 4 13 11
13 15 -3 20 1 26 18 26 11 0 23 -5 26 -10 3 -5 17 -10 29 -10 20 0 22 4 18 26
-5 25 -3 26 29 19 19 -3 43 -9 54 -12 19 -5 19 -5 3 14 -22 24 -23 72 -3 79 8
4 15 12 15 20 0 7 7 17 16 22 9 5 15 12 15 15 -5 35 1 47 22 47 12 0 33 7 45
16 20 14 22 22 17 55 -5 31 -3 40 9 45 9 3 16 15 16 25 0 11 7 22 15 25 10 4
12 10 6 18 -12 15 6 105 26 128 8 9 12 22 8 28 -4 6 0 26 9 45 10 20 18 70 20
122 3 48 7 100 9 115 4 20 2 25 -10 21 -9 -4 -16 2 -20 16 -3 11 -8 21 -12 21
-4 0 -15 20 -26 45 -11 25 -23 45 -27 45 -4 0 -3 14 2 30 5 19 5 28 -1 25 -5
-4 -9 3 -9 14 0 12 -6 21 -12 21 -15 1 -58 35 -58 46 0 4 15 24 32 43 l33 35
-45 -34 c-25 -19 -51 -38 -58 -44 -11 -8 -11 -4 -1 18 11 22 10 29 -3 42 -12
13 -20 14 -37 5 -13 -7 -27 -8 -37 -3 -14 8 -14 10 0 21 15 13 11 41 -6 41 -5
0 -6 -4 -3 -10 3 -5 -1 -10 -10 -10 -10 0 -14 5 -11 13 3 6 9 20 12 30 4 10
24 27 45 37 40 21 84 27 74 10 -3 -6 1 -7 9 -4 9 3 16 2 16 -4 0 -5 15 -9 33
-8 29 1 32 -1 30 -26 -2 -31 0 -33 29 -17 17 9 20 9 15 -4 -5 -13 -2 -13 21
-2 15 8 54 17 86 21 52 6 58 5 53 -10 -13 -34 14 -14 58 44 25 33 50 60 55 60
27 0 15 -27 -34 -76 -58 -56 -67 -70 -41 -60 13 5 14 2 4 -15 -9 -17 -8 -23 2
-30 32 -20 49 -34 49 -42 0 -5 6 -15 14 -22 9 -9 12 -31 9 -68 -2 -30 1 -66 6
-79 7 -17 6 -29 -2 -37 -8 -8 -7 -11 6 -11 9 0 17 -4 17 -10 0 -17 43 -50 65
-50 13 0 40 20 68 51 37 41 51 50 74 47 22 -2 30 -10 39 -43 l12 -40 10 26 c6
15 20 33 31 41 20 14 20 15 -9 43 -17 16 -30 34 -30 42 0 17 32 33 67 33 31 0
53 16 53 37 0 8 -12 13 -30 13 -25 0 -30 4 -30 25 0 14 -4 25 -10 25 -5 0 -10
9 -10 19 0 28 -39 91 -56 91 -17 0 -18 14 -4 41 9 16 14 17 30 7 15 -10 22 -9
38 5 10 9 56 24 102 33 84 15 150 37 150 49 0 3 -13 11 -30 16 -46 17 -36 29
23 28 61 -2 80 6 122 50 25 28 28 34 17 52 -11 17 -9 21 15 30 16 6 36 17 45
26 22 20 33 70 18 88 -9 11 -7 16 9 25 25 13 28 52 6 70 -29 24 -170 -13 -167
-45 0 -5 17 -15 37 -20 76 -22 23 -47 -70 -34 -67 10 -166 2 -144 -12 10 -6 6
-11 -14 -18 -16 -6 -31 -11 -35 -11 -10 -1 -56 -40 -51 -44 2 -1 21 -13 42
-25 20 -12 37 -24 37 -26 0 -9 -117 8 -179 26 -67 19 -78 27 -141 112 l-28 37
-20 -34 c-28 -48 -85 -52 -148 -11 -35 22 -29 36 7 18 21 -11 41 -13 67 -7 27
5 31 9 17 12 -11 2 -24 8 -29 13 -6 5 -18 9 -28 9 -10 0 -18 5 -18 10 0 6 5
10 12 10 6 0 8 3 4 7 -4 4 -15 8 -24 8 -11 0 -16 7 -14 18 2 9 -2 17 -8 17 -7
0 -9 8 -5 20 5 15 3 18 -8 14 -9 -3 -17 3 -20 18 -4 13 -22 39 -42 58 -32 31
-35 32 -35 12 0 -12 9 -44 20 -72 25 -63 25 -72 0 -40 l-20 25 0 -28 c0 -15
-7 -41 -15 -57 -11 -22 -12 -35 -4 -60 14 -40 3 -52 -12 -14 l-12 29 -8 -29
c-15 -53 -74 -96 -149 -110 -33 -6 -33 -5 -10 6 14 6 49 23 78 36 28 14 52 31
52 39 0 18 -9 16 -48 -7 -47 -29 -60 -14 -15 17 54 36 92 73 110 108 l16 30
-24 -21 c-30 -25 -68 -48 -94 -57 -20 -6 -20 -6 -1 6 11 7 38 29 60 49 l41 37
-65 -27 c-60 -25 -76 -27 -195 -26 -115 0 -140 3 -215 28 -90 30 -142 54 -175
81 -11 9 7 2 40 -14 104 -52 227 -83 340 -84 55 -1 117 2 139 6 64 14 33 18
-41 6 -58 -10 -87 -9 -169 5 -87 15 -252 71 -241 83 3 2 35 -8 71 -23 37 -14
69 -25 71 -22 2 2 -24 14 -58 27 -34 13 -91 41 -127 62 -71 40 -189 157 -182
178 3 8 0 11 -6 7 -30 -18 -38 163 -11 216 7 13 6 16 -3 13 -15 -6 -84 62 -74
73 4 3 10 2 14 -4 4 -6 17 -16 29 -23 26 -13 36 -2 27 33 -8 33 3 51 22 35 11
-9 12 -14 3 -19 -7 -5 -8 -10 -1 -14 6 -3 17 14 26 40 15 43 14 47 -4 67 -18
18 -20 19 -20 3 0 -17 -22 -46 -35 -46 -4 0 -4 14 0 30 6 29 -9 44 -18 18 -3
-10 -7 -10 -20 1 -13 10 -20 11 -31 2 -10 -8 -16 -9 -21 -1 -7 12 -57 2 -67
-13 -4 -7 -20 -5 -46 5 -33 13 -41 13 -58 1 -10 -7 -24 -11 -31 -9 -7 3 -13 2
-13 -2 0 -4 -9 -13 -21 -20 -18 -11 -23 -11 -33 4 -7 9 -18 14 -24 10 -17 -10
-15 -26 3 -26 8 0 15 -7 15 -15 0 -8 -5 -15 -12 -15 -6 0 -3 -9 7 -20 22 -25
35 -26 35 -2 0 9 4 23 9 31 8 12 12 12 25 2 20 -17 21 -35 2 -28 -20 8 -28
-32 -10 -50 8 -8 14 -20 14 -26 0 -7 10 -17 22 -22 27 -13 35 -33 11 -31 -10
0 -21 9 -25 19 -6 14 -14 17 -30 11 -20 -6 -21 -5 -10 9 16 19 7 38 -14 30
-11 -4 -14 -13 -10 -29 8 -32 -8 -31 -22 1 -6 14 -18 25 -27 25 -21 0 -19 -12
5 -33 21 -18 28 -67 9 -67 -7 0 -9 9 -6 21 7 27 -31 68 -44 48 -5 -8 -9 -9 -9
-4 0 6 7 21 16 33 9 13 13 29 11 36 -3 8 2 24 11 37 11 16 12 24 4 27 -7 2
-12 9 -12 17 0 7 -6 18 -14 24 -12 10 -17 8 -26 -8 -6 -12 -18 -21 -27 -21
-11 0 -13 4 -6 13 6 6 13 21 17 32 6 16 0 14 -25 -10 -29 -27 -31 -28 -27 -8
4 15 2 20 -8 16 -8 -3 -14 -15 -14 -26 0 -16 -3 -18 -11 -10 -6 6 -11 23 -11
37 0 15 -5 29 -9 32 -5 3 -7 10 -3 15 3 5 10 7 15 4 5 -4 9 -2 9 4 0 13 -19
25 -27 17 -3 -3 -6 -19 -5 -36 0 -16 -3 -32 -8 -35 -9 -6 -36 34 -32 48 1 4
-3 14 -10 21 -17 16 -60 16 -54 0 3 -7 -2 -18 -10 -24 -10 -9 -14 -9 -14 -1 0
6 -4 11 -10 11 -5 0 -10 -7 -10 -15 0 -25 -17 -17 -26 13 -5 20 -8 23 -11 9
-4 -15 -6 -15 -23 5 l-19 23 -1 -38 c0 -23 -4 -36 -10 -32 -5 3 -10 17 -10 30
0 26 -33 55 -62 55 -17 0 -17 -3 -4 -35 14 -33 14 -35 -4 -35 -22 0 -35 17
-18 22 9 3 8 9 -5 22 -9 10 -17 21 -17 24 0 4 -9 13 -20 20 -18 11 -20 10 -20
-13z m330 -67 c0 -16 -3 -19 -11 -11 -6 6 -8 16 -5 22 11 17 16 13 16 -11z
m-316 -34 c3 -8 2 -12 -4 -9 -6 3 -10 10 -10 16 0 14 7 11 14 -7z m294 -2 c2
-7 -3 -12 -12 -12 -9 0 -16 7 -16 16 0 17 22 14 28 -4z m48 -42 c0 -33 -4 -60
-8 -60 -5 0 -8 6 -9 13 -1 6 -3 28 -5 47 -3 40 1 60 15 60 5 0 8 -27 7 -60z
m-410 25 c8 -32 -1 -42 -21 -25 -12 10 -15 10 -15 -5 0 -12 -6 -16 -20 -12
-11 3 -20 1 -20 -3 0 -4 -11 -3 -25 3 -26 13 -28 32 -3 32 8 0 22 6 31 14 9 7
21 10 26 7 5 -4 12 -2 16 4 11 18 24 11 31 -15z m34 9 c0 -8 -5 -12 -10 -9 -6
4 -8 11 -5 16 9 14 15 11 15 -7z m280 -5 c0 -11 -4 -17 -10 -14 -5 3 -10 13
-10 21 0 8 5 14 10 14 6 0 10 -9 10 -21z m-152 -10 c15 -11 27 -28 27 -37 1
-35 19 -98 33 -121 l16 -23 16 20 c17 20 17 20 34 1 12 -15 14 -24 7 -37 -9
-15 -10 -14 -11 6 0 30 -26 28 -34 -3 -4 -14 -11 -25 -16 -25 -6 0 -9 3 -8 8
1 4 -5 21 -15 38 -13 25 -21 30 -41 27 -18 -4 -28 0 -32 11 -10 26 4 31 26 11
20 -18 20 -17 20 13 0 17 -7 38 -16 47 -9 8 -13 22 -10 30 3 9 -3 19 -14 25
-11 6 -20 15 -20 20 0 15 9 12 38 -11z m638 -14 c-2 -7 1 -18 7 -24 8 -8 8
-11 0 -11 -12 0 -23 23 -23 46 0 9 5 12 11 9 6 -4 8 -13 5 -20z m139 15 c-3
-5 -1 -18 4 -27 9 -16 10 -16 11 5 0 13 6 22 15 22 22 0 18 -27 -5 -40 -14 -7
-26 -8 -39 0 -11 5 -27 7 -35 4 -11 -4 -16 0 -16 11 0 11 5 15 14 12 8 -3 17
1 20 9 3 8 13 14 21 14 9 0 13 -4 10 -10z m-476 -48 c10 -34 1 -42 -19 -17
-10 12 -10 15 1 15 10 0 10 3 1 12 -7 7 -12 19 -12 27 0 23 19 0 29 -37z m387
11 c-8 -8 -36 10 -36 25 0 13 3 12 20 -3 11 -10 18 -20 16 -22z m-486 17 c0
-5 -4 -10 -10 -10 -5 0 -10 5 -10 10 0 6 5 10 10 10 6 0 10 -4 10 -10z m398
-8 c2 -7 -3 -12 -12 -12 -9 0 -16 7 -16 16 0 17 22 14 28 -4z m253 -9 c-5 -19
-3 -36 7 -50 9 -15 10 -23 3 -23 -6 0 -19 16 -28 35 -13 28 -14 37 -3 50 19
23 29 18 21 -12z m-401 2 c0 -8 -4 -15 -10 -15 -5 0 -10 7 -10 15 0 8 5 15 10
15 6 0 10 -7 10 -15z m-390 -33 c0 -15 -2 -15 -10 -2 -13 20 -13 33 0 25 6 -3
10 -14 10 -23z m80 18 c0 -5 -5 -10 -11 -10 -5 0 -7 5 -4 10 3 6 8 10 11 10 2
0 4 -4 4 -10z m230 -33 c0 -4 -9 -2 -20 5 -13 9 -16 14 -7 20 11 6 27 -8 27
-25z m265 3 c21 -40 19 -48 -5 -17 -19 23 -26 47 -15 47 2 0 11 -13 20 -30z
m-517 -12 c14 -3 13 -7 -8 -26 -13 -12 -27 -22 -31 -22 -10 0 -21 32 -13 39 4
3 9 0 11 -6 3 -7 9 -13 14 -13 13 0 11 28 -3 32 -7 3 -8 9 -3 19 8 12 10 11
13 -3 2 -9 11 -18 20 -20z m556 17 c3 -8 1 -15 -4 -15 -6 0 -10 7 -10 15 0 8
2 15 4 15 2 0 6 -7 10 -15z m66 5 c0 -5 -7 -10 -15 -10 -8 0 -15 5 -15 10 0 6
7 10 15 10 8 0 15 -4 15 -10z m46 -5 c13 -12 13 -18 2 -32 -14 -19 -64 -31
-53 -13 3 6 13 10 21 10 17 0 18 22 2 38 -9 9 -9 12 1 12 7 0 19 -7 27 -15z
m-1386 -15 c0 -5 -4 -10 -10 -10 -5 0 -10 5 -10 10 0 6 5 10 10 10 6 0 10 -4
10 -10z m390 -25 c0 -8 -7 -15 -15 -15 -16 0 -20 12 -8 23 11 12 23 8 23 -8z
m30 5 c0 -5 -4 -10 -10 -10 -5 0 -10 5 -10 10 0 6 5 10 10 10 6 0 10 -4 10
-10z m630 0 c0 -5 -4 -10 -10 -10 -5 0 -10 5 -10 10 0 6 5 10 10 10 6 0 10 -4
10 -10z m-500 -15 c12 -15 6 -35 -11 -35 -6 0 -7 5 -4 10 4 6 1 17 -5 25 -7 9
-8 15 -2 15 5 0 15 -7 22 -15z m198 -4 c-7 -11 -16 -18 -20 -15 -4 3 -2 11 5
19 18 21 29 18 15 -4z m562 9 c0 -5 -4 -10 -9 -10 -5 0 -11 -12 -14 -26 -4
-23 -2 -25 20 -19 24 6 24 5 9 -11 -28 -28 -96 1 -96 42 0 16 1 16 18 1 22
-20 35 -22 29 -4 -2 6 3 17 12 24 20 15 31 16 31 3z m-280 -20 c0 -5 -4 -10
-10 -10 -5 0 -10 5 -10 10 0 6 5 10 10 10 6 0 10 -4 10 -10z m-1225 -20 c3 -5
1 -10 -4 -10 -6 0 -11 5 -11 10 0 6 2 10 4 10 3 0 8 -4 11 -10z m965 -6 c0 -8
-4 -12 -10 -9 -5 3 -10 10 -10 16 0 5 5 9 10 9 6 0 10 -7 10 -16z m230 1 c0
-7 5 -15 11 -17 6 -2 9 -13 7 -23 -4 -18 -6 -17 -16 8 -13 30 -22 33 -40 15
-9 -9 -12 -9 -12 3 0 20 5 24 30 26 11 1 20 -4 20 -12z m380 5 c0 -5 -4 -10
-10 -10 -5 0 -10 5 -10 10 0 6 5 10 10 10 6 0 10 -4 10 -10z m-523 -22 c-3 -8
-6 -5 -6 6 -1 11 2 17 5 13 3 -3 4 -12 1 -19z m-427 8 c0 -3 -4 -8 -10 -11 -5
-3 -10 -1 -10 4 0 6 5 11 10 11 6 0 10 -2 10 -4z m90 -6 c0 -5 -2 -10 -4 -10
-3 0 -8 5 -11 10 -3 6 -1 10 4 10 6 0 11 -4 11 -10z m310 2 c0 -5 -7 -9 -15
-9 -8 0 -12 4 -9 9 3 4 9 8 15 8 5 0 9 -4 9 -8z m-575 -22 c10 -11 16 -20 13
-20 -3 0 -13 9 -23 20 -10 11 -16 20 -13 20 3 0 13 -9 23 -20z m315 10 c13 -7
21 -7 25 0 8 13 35 -6 35 -23 0 -7 -4 -7 -12 1 -16 16 -28 15 -28 -3 0 -8 4
-15 8 -15 4 0 8 -19 7 -42 0 -35 -4 -43 -20 -46 -16 -3 -18 -1 -7 9 26 27 4
109 -30 109 -18 0 -7 -31 15 -41 18 -7 15 -8 -15 -4 l-37 6 11 -31 c8 -25 15
-31 32 -26 20 5 20 4 2 -9 -10 -7 -15 -18 -11 -24 3 -7 0 -8 -9 -5 -14 5 -26
35 -39 92 -4 18 -2 22 9 18 8 -3 14 -1 14 5 0 9 21 38 28 39 2 0 12 -5 22 -10z
m210 -9 c0 -6 -4 -13 -10 -16 -5 -3 -10 1 -10 9 0 9 5 16 10 16 6 0 10 -4 10
-9z m280 0 c0 -6 -4 -13 -10 -16 -5 -3 -10 1 -10 9 0 9 5 16 10 16 6 0 10 -4
10 -9z m-62 -37 c-4 -3 -12 5 -18 18 -12 22 -12 22 6 6 10 -10 15 -20 12 -24z
m359 19 c2 -6 -10 -13 -27 -15 -34 -5 -37 -1 -12 18 19 15 34 14 39 -3z m104
-24 c-6 -18 -11 -55 -11 -83 0 -37 -3 -47 -10 -36 -5 8 -10 31 -10 50 0 26 -3
31 -10 20 -6 -9 -10 -10 -10 -3 0 6 6 18 13 25 7 7 18 26 25 42 17 38 27 26
13 -15z m-711 17 c0 -3 -4 -8 -10 -11 -5 -3 -10 -1 -10 4 0 6 5 11 10 11 6 0
10 -2 10 -4z m376 -15 c-19 -21 -8 -35 21 -24 16 6 16 5 4 -11 -8 -9 -20 -15
-28 -12 -8 4 -13 -3 -14 -17 -1 -21 -1 -20 -8 3 -5 18 -9 21 -15 12 -4 -7 -14
-11 -21 -8 -8 3 -17 -4 -20 -15 -4 -10 -11 -19 -17 -19 -5 0 -8 7 -5 15 4 8 2
17 -3 20 -6 4 -10 12 -10 18 0 8 4 7 9 -2 7 -11 10 -9 13 9 1 13 8 25 15 27 7
3 9 -3 6 -16 -5 -20 -4 -20 25 -6 16 9 35 22 42 30 7 8 15 15 18 15 3 0 -3 -9
-12 -19z m-832 -94 c-2 -108 -2 -109 -26 -137 l-20 -25 17 28 c9 16 15 31 12
33 -3 3 -14 -10 -25 -28 -21 -34 -82 -96 -67 -68 4 8 -5 3 -21 -12 -40 -36
-130 -84 -227 -120 -68 -25 -96 -30 -162 -29 -93 1 -109 5 -153 38 -37 28 -62
71 -62 107 0 65 144 159 299 197 42 10 103 30 136 44 119 54 184 65 253 46 31
-9 33 -9 26 12 -5 18 -4 20 7 9 10 -9 14 -37 13 -95z m496 93 c0 -5 -5 -10
-11 -10 -5 0 -7 5 -4 10 3 6 8 10 11 10 2 0 4 -4 4 -10z m232 -12 c-7 -7 -12
-8 -12 -2 0 14 12 26 19 19 2 -3 -1 -11 -7 -17z m-115 -10 c-3 -8 -6 -5 -6 6
-1 11 2 17 5 13 3 -3 4 -12 1 -19z m-1432 -16 c0 -18 -20 -15 -23 4 -3 10 1
15 10 12 7 -3 13 -10 13 -16z m79 3 c3 -9 0 -15 -9 -15 -16 0 -27 14 -18 24
10 10 21 7 27 -9z m1203 -7 c-3 -8 -6 -5 -6 6 -1 11 2 17 5 13 3 -3 4 -12 1
-19z m-119 -23 c-3 -3 -9 2 -12 12 -6 14 -5 15 5 6 7 -7 10 -15 7 -18z m86 9
c3 -8 2 -12 -4 -9 -6 3 -10 10 -10 16 0 14 7 11 14 -7z m76 7 c0 -9 -27 -41
-35 -41 -2 0 2 11 8 25 12 25 27 34 27 16z m350 -61 c0 -5 -7 -7 -15 -4 -8 4
-12 10 -9 15 6 11 24 2 24 -11z m-41 -23 c0 -21 -1 -21 -9 -2 -12 28 -12 37 0
30 6 -3 10 -16 9 -28z m-1503 1 c-55 -77 -66 -99 -75 -148 l-9 -55 -1 47 c-1
61 12 95 57 141 41 42 52 48 28 15z m1805 -9 c-5 -13 -10 -19 -10 -12 -1 15
10 45 15 40 3 -2 0 -15 -5 -28z m20 -62 c-8 -8 -11 -2 -11 19 0 40 14 54 18
19 2 -15 -1 -32 -7 -38z m-1935 -14 c-8 -15 -15 -22 -16 -15 0 17 20 55 27 49
2 -3 -2 -18 -11 -34z m2003 0 c10 -21 38 -60 62 -88 42 -50 42 -50 5 -15 -57
53 -114 140 -91 140 2 0 13 -17 24 -37z m-28 -6 c66 -93 88 -127 80 -127 -6 0
-13 5 -16 11 -4 5 -18 14 -30 19 -29 11 -53 45 -61 88 -8 37 4 41 27 9z
m-1040 -70 c-24 -47 -36 -63 -70 -92 -25 -21 -28 -27 60 119 29 50 37 29 10
-27z m-181 29 c0 -2 -8 -10 -17 -17 -16 -13 -17 -12 -4 4 13 16 21 21 21 13z
m-728 -178 c13 -10 45 -29 72 -43 28 -14 43 -25 35 -25 -7 0 -43 16 -78 35
-57 31 -62 32 -41 10 13 -14 45 -35 72 -47 26 -12 48 -25 48 -30 0 -11 -17
-10 -43 3 -22 12 -22 12 -3 -10 23 -25 6 -28 -30 -5 -30 20 -78 99 -69 114 4
6 2 16 -3 23 -6 7 -13 37 -16 67 l-6 55 20 -65 c12 -38 29 -72 42 -82z m930
70 c-17 -29 -43 -65 -58 -78 -20 -18 -16 -10 14 32 23 32 47 69 54 83 6 14 13
23 16 21 2 -3 -10 -29 -26 -58z m-909 -28 c18 -19 25 -29 17 -22 -17 15 -34
16 -24 1 9 -15 124 -69 149 -70 11 0 14 -3 8 -6 -31 -12 -158 51 -183 91 -12
19 -12 20 3 7 23 -18 21 -5 -3 26 -11 14 -20 33 -19 42 0 10 4 6 10 -9 6 -14
24 -41 42 -60z m996 -8 c-5 -16 -24 -44 -40 -63 -29 -32 -30 -32 -14 -5 10 16
26 44 37 63 24 40 30 42 17 5z m-781 -89 c-10 -2 -26 -2 -35 0 -10 3 -2 5 17
5 19 0 27 -2 18 -5z m-590 -111 c6 -9 12 -22 12 -30 0 -12 -5 -11 -21 4 -11
10 -25 27 -30 36 -8 14 -6 16 8 11 10 -3 24 -13 31 -21z m1532 -2 c0 -5 -5
-10 -11 -10 -5 0 -7 5 -4 10 3 6 8 10 11 10 2 0 4 -4 4 -10z m-1103 -96 c-3
-3 -12 -4 -19 -1 -8 3 -5 6 6 6 11 1 17 -2 13 -5z m2863 -7 c0 -16 -73 -131
-89 -141 -6 -4 -14 -1 -17 7 -3 8 16 44 41 81 45 64 65 80 65 53z m-2990 -27
c9 -17 7 -28 -10 -54 -11 -19 -28 -40 -36 -47 -15 -12 -16 -10 -9 20 5 23 4
31 -4 27 -18 -12 -12 10 8 28 18 17 19 17 24 -1 3 -10 5 -4 6 15 1 37 6 40 21
12z m3450 -6 c22 -10 40 -23 40 -28 0 -4 -6 -6 -12 -3 -7 2 -46 10 -86 17 -40
7 -77 19 -83 26 -16 20 94 10 141 -12z m-2040 -4 c0 -5 -4 -10 -10 -10 -5 0
-10 5 -10 10 0 6 5 10 10 10 6 0 10 -4 10 -10z m-1746 -37 c7 -16 -39 -93 -55
-93 -8 0 -10 6 -13 43 -1 6 5 11 12 10 6 -2 12 5 12 15 0 18 18 42 31 42 4 0
10 -7 13 -17z m3916 -20 c13 -13 12 -14 -10 -8 -72 22 -96 39 -37 28 17 -3 39
-12 47 -20z m-779 -36 c-16 -16 -26 0 -10 19 9 11 15 12 17 4 2 -6 -1 -17 -7
-23z m539 9 c0 -7 -6 -19 -14 -25 -18 -15 -30 11 -13 28 15 15 27 14 27 -3z
m-3430 -39 c0 -10 -4 -16 -9 -13 -5 3 -8 17 -8 32 0 18 2 22 8 13 5 -8 9 -22
9 -32z m3390 -31 c0 -3 -4 -8 -10 -11 -5 -3 -10 -1 -10 4 0 6 5 11 10 11 6 0
10 -2 10 -4z m-3730 -36 c0 -11 -7 -20 -15 -20 -15 0 -21 21 -8 33 12 13 23 7
23 -13z m1106 -108 c71 -101 96 -162 39 -96 -12 14 -28 26 -36 27 -8 2 -25 10
-38 19 -13 9 -29 14 -36 11 -8 -2 -19 6 -26 19 -6 13 -20 31 -31 41 -15 15
-16 22 -7 33 6 7 9 20 6 28 -4 10 -1 13 9 9 10 -3 14 2 14 18 1 23 2 22 31
-11 17 -19 50 -63 75 -98z m2527 76 c-2 -27 1 -48 6 -48 17 0 123 -150 117
-165 -4 -11 -17 -13 -53 -9 -26 3 -53 7 -60 9 -17 5 -36 83 -29 117 3 17 -2
46 -15 75 -23 54 -19 76 13 71 21 -3 23 -8 21 -50z m-793 -17 c-14 -27 -30
-35 -43 -22 -8 8 -6 15 9 26 29 22 47 20 34 -4z m30 -9 c0 -4 -9 -13 -20 -20
-22 -13 -27 -3 -8 16 14 14 28 16 28 4z m-2892 -273 c-2 -16 -11 -25 -25 -27
-28 -4 -31 22 -6 50 20 22 36 10 31 -23z m437 -69 c-3 -4 5 -10 17 -13 12 -4
19 -9 16 -12 -3 -3 -21 -2 -39 4 -19 5 -29 10 -22 10 7 1 10 8 7 16 -5 11 -2
13 10 9 9 -3 14 -10 11 -14z m2381 -75 c-9 -9 -16 -13 -16 -8 0 12 22 34 28
28 2 -2 -3 -11 -12 -20z m84 -6 c0 -6 7 -9 15 -5 22 8 18 -4 -7 -25 -23 -20
-108 -27 -108 -9 0 6 15 23 32 39 25 22 37 27 50 20 10 -5 18 -15 18 -20z
m-123 -1 c-3 -8 -6 -5 -6 6 -1 11 2 17 5 13 3 -3 4 -12 1 -19z m-2658 -129
c-16 -10 -23 -4 -14 10 3 6 11 8 17 5 6 -4 5 -9 -3 -15z m2746 4 c14 -14 18
-14 25 -2 16 25 33 -7 36 -68 6 -137 4 -145 -60 -219 -27 -32 -47 -45 -84 -54
-69 -16 -120 -15 -172 6 -62 24 -72 33 -65 62 4 18 1 25 -15 29 -15 4 -20 14
-20 39 0 24 5 34 15 34 8 0 15 8 15 18 0 23 53 75 80 79 22 3 27 -16 8 -35 -9
-9 -8 -12 6 -12 9 0 14 -5 11 -11 -4 -5 0 -18 8 -27 7 -9 17 -25 21 -36 5 -14
9 -16 20 -7 11 9 15 9 19 -1 3 -8 6 -6 6 5 1 10 6 15 11 12 6 -3 10 1 10 9 0
9 5 16 11 16 6 0 9 12 7 28 -2 22 -7 26 -25 24 -15 -2 -23 2 -23 12 0 8 -3 23
-7 33 -6 16 -5 17 12 3 10 -8 20 -14 22 -12 10 7 23 0 23 -13 0 -18 16 -20 26
-3 4 6 3 8 -3 5 -6 -4 -13 2 -16 12 -3 15 -1 18 11 14 11 -5 13 -3 7 7 -6 10
-4 12 9 7 14 -6 16 -3 11 13 -6 18 3 25 27 21 4 0 5 6 2 14 -8 20 11 19 31 -2z
m-1965 -49 c0 -14 4 -22 10 -19 6 3 14 -5 20 -19 5 -14 11 -26 14 -26 2 0 13
15 25 33 18 27 21 29 21 11 0 -12 7 -25 16 -28 8 -3 13 -2 10 3 -3 5 12 13 34
19 48 12 52 6 8 -12 -29 -13 -30 -14 -10 -20 16 -5 22 -15 22 -35 0 -47 57
-83 80 -50 11 14 16 15 22 6 5 -8 8 -7 8 5 0 25 29 38 57 25 19 -8 26 -7 38 9
14 19 14 19 15 -2 0 -11 -6 -26 -12 -33 -11 -10 -9 -15 9 -29 16 -13 19 -22
12 -39 -4 -13 -16 -23 -25 -23 -10 0 -14 -6 -11 -14 8 -20 -23 -45 -64 -52
-19 -4 -39 -11 -46 -16 -7 -5 -17 -7 -22 -4 -6 4 -27 7 -48 8 -21 0 -45 7 -54
15 -9 8 -20 13 -25 12 -18 -4 -44 14 -44 31 0 10 -9 20 -19 23 -23 6 -64 80
-67 122 -2 17 -5 45 -8 64 -6 36 9 75 25 66 5 -4 9 -17 9 -31z m-760 -8 c0
-14 -29 -31 -38 -22 -2 3 -2 12 1 21 8 19 37 20 37 1z m1038 -34 c12 0 22 4
22 9 0 6 5 7 11 3 8 -5 8 -9 -1 -14 -7 -4 -11 -17 -8 -28 5 -19 5 -19 -46 -1
-28 11 -53 19 -55 19 -3 0 4 6 15 14 10 8 23 11 29 7 5 -4 20 -8 33 -9z m62
-32 c0 -5 -4 -10 -9 -10 -6 0 -13 5 -16 10 -3 6 1 10 9 10 9 0 16 -4 16 -10z
m1280 0 c0 -5 -4 -10 -10 -10 -5 0 -10 5 -10 10 0 6 5 10 10 10 6 0 10 -4 10
-10z m507 -32 c-3 -7 -5 -2 -5 12 0 14 2 19 5 13 2 -7 2 -19 0 -25z m-1347
-23 c0 -5 -5 -3 -10 5 -5 8 -10 20 -10 25 0 6 5 3 10 -5 5 -8 10 -19 10 -25z
m1260 -138 c0 -2 -10 -12 -22 -23 l-23 -19 19 23 c18 21 26 27 26 19z m-313
-113 c-3 -3 -12 -4 -19 -1 -8 3 -5 6 6 6 11 1 17 -2 13 -5z m-2749 -404 c-11
-34 -28 -49 -28 -26 0 23 22 66 31 60 4 -2 3 -18 -3 -34z m2194 -251 c-11 -18
-10 -19 14 -13 25 6 26 5 22 -20 -3 -14 0 -33 7 -42 27 -38 -16 -93 -50 -64
-17 14 -13 69 5 80 9 6 6 10 -9 15 -24 7 -27 18 -8 37 15 14 11 42 -4 33 -5
-4 -6 1 -3 9 5 14 8 14 22 0 12 -13 13 -20 4 -35z m-45 -1 c-3 -8 -6 -5 -6 6
-1 11 2 17 5 13 3 -3 4 -12 1 -19z m-134 -65 c-3 -65 -10 -91 -21 -77 -13 15
-2 134 12 134 8 0 11 -17 9 -57z m927 -197 c-8 -11 -18 -12 -35 -6 -13 5 -25
6 -28 4 -3 -3 -8 -1 -12 5 -4 7 10 11 41 11 39 0 45 -2 34 -14z m675 -130 c9
-46 -12 -149 -46 -230 -16 -37 -29 -75 -29 -85 0 -9 -9 -31 -21 -50 -30 -49
-42 -27 -23 39 9 30 19 84 24 120 26 202 76 310 95 206z m-1415 24 c0 -5 -5
-10 -11 -10 -5 0 -7 5 -4 10 3 6 8 10 11 10 2 0 4 -4 4 -10z m-2034 -205 c3
-8 24 -28 47 -45 36 -26 77 -75 77 -91 0 -3 -8 -16 -19 -27 -19 -23 -41 -29
-41 -12 0 6 -11 10 -23 10 -29 0 -51 23 -72 73 -18 44 -19 79 -3 95 16 16 27
15 34 -3z m2574 -60 c13 -14 21 -25 18 -25 -2 0 -15 11 -28 25 -13 14 -21 25
-18 25 2 0 15 -11 28 -25z m-405 -135 c10 -11 16 -20 13 -20 -3 0 -13 9 -23
20 -10 11 -16 20 -13 20 3 0 13 -9 23 -20z m-2185 -250 c0 -13 -19 -22 -30
-15 -14 9 0 34 16 28 8 -3 14 -9 14 -13z m327 -112 c29 -32 45 -67 39 -84 -9
-22 -23 -16 -34 14 -5 15 -19 38 -31 51 -11 13 -21 28 -21 33 0 16 27 8 47
-14z m-29 -58 c35 -54 41 -87 16 -97 -18 -7 -68 38 -90 80 -11 20 -12 32 -4
47 17 32 43 22 78 -30z m982 -49 c4 -8 41 -30 139 -82 47 -25 65 -45 31 -34
-14 5 -52 9 -85 9 -40 1 -75 8 -105 23 -52 25 -93 21 -107 -9 -9 -20 -71 -48
-109 -48 -12 0 -34 -17 -53 -40 -33 -42 -55 -53 -44 -22 3 9 -11 0 -33 -20
-22 -21 -45 -38 -52 -38 -7 0 -12 -4 -12 -9 0 -20 -74 -55 -110 -52 -47 3 -85
-37 -76 -80 3 -16 2 -28 -2 -28 -21 4 -42 -2 -42 -12 0 -5 5 -7 10 -4 17 10
11 -20 -15 -79 -31 -70 -31 -76 0 -76 13 0 48 -13 77 -28 67 -36 155 -67 266
-93 48 -11 95 -22 105 -25 14 -4 17 1 17 33 0 21 -9 78 -20 127 -29 132 -31
127 38 120 31 -3 73 -10 92 -15 79 -21 108 -83 73 -155 -10 -22 -20 -62 -22
-90 -2 -50 -1 -52 45 -90 69 -56 154 -142 154 -155 0 -7 -9 -9 -25 -5 -18 5
-25 2 -25 -8 0 -27 -50 -5 -68 30 -6 12 -26 27 -44 34 -18 8 -46 23 -62 34
-16 11 -48 23 -70 27 -177 31 -212 40 -227 58 -27 32 -80 53 -140 55 -38 1
-55 5 -52 13 9 22 -28 63 -56 63 -14 0 -40 2 -56 6 -27 5 -34 1 -63 -40 -18
-24 -31 -51 -30 -57 2 -7 -2 -13 -9 -14 -12 0 -106 -103 -123 -136 -16 -29 -4
-39 28 -24 28 14 63 18 143 16 38 -1 59 -9 112 -46 37 -25 68 -45 71 -45 3 0
22 -11 42 -25 20 -14 49 -25 64 -25 36 0 83 -16 151 -51 31 -16 63 -29 71 -29
8 0 23 -9 33 -20 22 -24 35 -26 35 -4 0 18 1 17 53 -15 21 -13 46 -40 56 -61
l18 -38 -41 3 c-23 1 -77 16 -121 34 -44 18 -128 50 -188 71 -59 22 -132 55
-162 75 -31 19 -57 35 -60 35 -6 0 -40 28 -64 51 -52 52 -111 48 -165 -11 -22
-25 -45 -40 -58 -40 -22 1 -22 1 -4 15 11 8 17 17 14 20 -8 8 -97 -38 -98 -51
0 -19 -43 -50 -148 -109 -86 -49 -107 -65 -132 -106 -16 -27 -34 -49 -40 -49
-5 0 -10 -9 -10 -20 0 -11 -4 -20 -9 -20 -5 0 -9 -10 -9 -22 0 -42 -23 -109
-39 -115 -9 -3 -30 1 -47 11 -36 19 -52 18 -48 -4 2 -12 1 -13 -6 -1 -6 8 -15
10 -22 6 -9 -5 -11 -4 -6 4 4 6 25 23 46 36 46 29 78 83 54 92 -13 5 -13 7 -2
14 10 7 8 9 -7 9 -18 0 -18 1 3 16 13 9 21 22 18 30 -3 7 3 19 13 26 9 7 21
19 25 27 7 10 3 12 -14 6 -19 -6 -22 -4 -17 9 7 18 6 19 -17 10 -9 -3 -14 -10
-11 -14 3 -5 -4 -11 -15 -15 -11 -3 -20 -11 -20 -16 0 -5 -6 -9 -14 -9 -8 0
-21 -9 -29 -20 -8 -12 -20 -18 -30 -15 -8 4 -18 1 -23 -6 -5 -9 -2 -10 9 -6
10 3 17 2 17 -3 0 -6 -6 -10 -12 -10 -20 -1 -70 -49 -63 -60 3 -6 1 -10 -4
-10 -6 0 -11 7 -11 16 0 13 -3 14 -15 4 -8 -6 -18 -9 -24 -6 -5 4 -7 -4 -4
-16 5 -19 3 -21 -8 -10 -7 6 -21 12 -31 12 -15 0 -17 -5 -12 -25 4 -16 2 -25
-6 -25 -6 0 -8 -4 -5 -10 3 -6 -1 -7 -9 -4 -12 4 -16 0 -16 -16 0 -11 5 -18
10 -15 17 10 11 -12 -7 -26 -10 -8 -14 -9 -10 -2 4 7 2 26 -5 43 -13 31 -14
32 -31 12 -17 -18 -17 -20 0 -33 16 -13 17 -12 4 3 -8 11 -9 18 -3 18 15 0 27
-21 27 -48 1 -15 -4 -21 -12 -17 -7 3 -21 8 -30 11 -15 5 -16 4 -3 -5 13 -9
12 -12 -7 -17 -13 -4 -20 -10 -17 -15 3 -5 -2 -6 -10 -3 -9 3 -16 1 -16 -5 0
-6 -4 -11 -10 -11 -5 0 -10 7 -10 16 0 8 4 13 9 10 4 -3 17 1 27 9 19 15 19
15 0 30 -22 17 -61 21 -51 5 3 -6 2 -10 -3 -10 -5 0 -12 9 -15 20 -5 20 -27
28 -27 10 0 -15 -51 -12 -83 4 -26 14 -27 14 -17 -4 10 -19 -4 -39 -17 -26 -4
3 -1 6 6 6 9 0 8 5 -3 15 -8 9 -12 23 -9 33 5 13 3 14 -7 5 -7 -6 -19 -9 -27
-6 -8 3 -19 0 -23 -7 -7 -11 -14 -11 -34 -2 -19 9 -27 8 -37 -4 -10 -13 -14
-13 -30 2 -21 19 -52 6 -72 -31 -11 -23 -15 -24 -31 -12 -25 18 -15 71 12 63
19 -6 62 25 62 44 0 6 10 10 23 9 22 -2 40 3 87 24 46 20 134 34 163 26 24 -7
29 -5 37 17 6 16 17 24 33 24 13 0 29 6 36 13 11 10 12 9 6 -1 -5 -10 -1 -13
16 -10 19 2 24 9 24 30 -1 14 3 24 7 22 4 -3 9 14 9 38 1 24 3 35 6 25 2 -9 9
-17 14 -17 5 0 6 -12 3 -26 -5 -21 -4 -25 6 -19 10 6 12 4 7 -8 -3 -10 -2 -17
3 -17 13 0 28 32 23 48 -3 7 1 10 10 6 8 -3 18 0 22 7 6 8 13 5 26 -12 13 -17
19 -19 19 -9 0 8 12 28 25 43 19 21 31 27 46 22 19 -7 20 -7 2 -21 -10 -7 -13
-14 -7 -14 6 0 28 20 49 45 21 24 42 42 47 39 4 -3 12 6 18 20 5 14 12 26 14
26 3 0 3 -8 -1 -18 -6 -15 -4 -15 18 3 13 11 32 29 42 40 18 20 18 20 12 -2
-7 -24 10 -40 22 -21 4 7 19 22 32 33 24 20 24 20 17 0 -6 -16 -1 -14 23 9 31
30 79 48 65 24 -4 -7 -3 -8 5 -4 6 4 9 11 6 16 -3 5 3 14 14 20 17 8 19 8 15
-4 -3 -8 0 -17 7 -22 8 -4 10 -3 5 4 -4 7 -1 12 7 12 7 0 25 13 39 29 19 21
23 32 15 40 -8 8 -7 11 2 11 18 0 51 39 51 59 0 14 2 14 11 1 8 -11 9 -8 5 15
l-7 30 21 -25 c11 -14 20 -19 20 -12 0 7 -7 20 -15 28 -23 24 -18 42 11 38 21
-2 25 1 21 16 -3 13 0 17 9 13 10 -4 12 0 7 13 -6 17 -5 18 12 4 17 -14 18
-13 13 7 -4 13 0 27 7 33 8 6 11 19 8 28 -6 14 -4 15 9 4 13 -10 17 -10 21 0
4 10 8 10 16 -2 6 -8 11 -10 11 -5 0 6 10 21 21 35 20 24 21 24 16 3 -6 -25
10 -32 19 -8 4 8 11 12 17 8 7 -4 8 4 4 25 -4 21 -1 34 10 44 15 12 16 10 10
-19 -7 -37 7 -53 22 -25 11 20 6 63 -9 93 -6 10 -10 32 -10 51 l0 32 16 -22
c15 -22 17 -22 30 -5 7 10 14 30 14 45 0 21 4 25 20 21 15 -4 19 -2 15 10 -4
9 11 33 39 63 25 27 46 53 46 59 0 5 5 3 10 -5 9 -13 12 -13 24 3 7 9 17 17
21 17 4 0 25 16 46 35 22 19 45 35 53 35 8 0 18 9 21 20 3 11 14 20 24 20 10
0 28 12 42 26 13 14 38 32 54 40 17 8 55 29 85 45 30 17 73 37 95 45 40 14 94
11 105 -5z m-1040 -61 c0 -12 -28 -25 -36 -17 -9 9 6 27 22 27 8 0 14 -5 14
-10z m1150 -320 c0 -20 -55 -31 -171 -33 -116 -2 -151 6 -135 32 9 15 306 15
306 1z m1628 -162 c-3 -7 -15 -14 -29 -16 -24 -4 -24 -3 -4 12 24 19 38 20 33
4z m-88 -28 c0 -5 -7 -10 -16 -10 -8 0 -12 5 -9 10 3 6 10 10 16 10 5 0 9 -4
9 -10z m-2136 -241 c-3 -5 -14 -5 -25 1 -26 14 -24 18 6 12 14 -2 22 -8 19
-13z m2201 -389 c3 -6 -1 -7 -9 -4 -18 7 -21 14 -7 14 6 0 13 -4 16 -10z
m-1673 -97 c21 -19 24 -43 4 -43 -12 0 -46 40 -46 55 0 11 24 4 42 -12z
m-1657 -163 c3 -5 1 -10 -4 -10 -6 0 -11 5 -11 10 0 6 2 10 4 10 3 0 8 -4 11
-10z m-328 -86 c-3 -3 -12 -4 -19 -1 -8 3 -5 6 6 6 11 1 17 -2 13 -5z m60 -10
c-3 -3 -12 -4 -19 -1 -8 3 -5 6 6 6 11 1 17 -2 13 -5z m205 -65 c6 -4 -5 -9
-24 -13 -18 -3 -46 -18 -61 -32 -16 -14 -31 -23 -34 -20 -9 8 18 37 28 30 5
-3 9 -1 9 5 0 5 9 13 20 16 11 4 18 11 15 16 -3 5 1 6 9 3 12 -4 16 0 17 17 1
21 2 21 6 4 3 -11 10 -23 15 -26z m-282 26 c0 -2 -14 -12 -31 -21 -17 -8 -28
-11 -24 -4 4 6 17 15 29 20 27 11 26 11 26 5z m3471 -72 c7 -18 6 -30 -1 -37
-8 -8 -11 -7 -8 4 2 8 -3 14 -9 13 -7 -2 -13 1 -13 6 0 5 -3 16 -6 25 -4 11
-1 16 10 16 9 0 21 -12 27 -27z m-3531 -12 c0 -5 -12 -17 -27 -26 l-28 -18 24
27 c26 28 31 31 31 17z m164 -18 c-3 -12 -12 -24 -19 -27 -10 -3 -9 3 3 24 19
33 24 34 16 3z m2851 18 c3 -6 -3 -9 -14 -8 -11 0 -17 5 -15 9 7 11 22 10 29
-1z m-2763 -33 c-7 -7 -12 -8 -12 -2 0 14 12 26 19 19 2 -3 -1 -11 -7 -17z"/>
<path d="M2716 4598 c3 -5 10 -6 15 -3 13 9 11 12 -6 12 -8 0 -12 -4 -9 -9z"/>
<path d="M2756 4555 c9 -14 19 -24 21 -21 6 6 -20 46 -30 46 -4 0 0 -11 9 -25z"/>
<path d="M4580 4205 c0 -5 5 -17 10 -25 5 -8 10 -10 10 -5 0 6 -5 17 -10 25
-5 8 -10 11 -10 5z"/>
<path d="M4540 3959 c0 -5 5 -7 10 -4 6 3 10 8 10 11 0 2 -4 4 -10 4 -5 0 -10
-5 -10 -11z"/>
<path d="M2340 1228 c0 -19 2 -20 10 -8 13 19 13 30 0 30 -5 0 -10 -10 -10
-22z"/>
<path d="M2320 1201 c0 -5 5 -13 10 -16 6 -3 10 -2 10 4 0 5 -4 13 -10 16 -5
3 -10 2 -10 -4z"/>
<path d="M808 273 c7 -3 16 -2 19 1 4 3 -2 6 -13 5 -11 0 -14 -3 -6 -6z"/>
<path d="M1067 266 c-16 -13 -15 -15 15 -25 29 -10 31 -9 14 3 -10 8 -15 19
-11 25 8 14 4 13 -18 -3z"/>
<path d="M1170 271 c0 -8 -8 -10 -22 -6 -22 6 -22 5 -4 -6 25 -15 87 -13 97 3
11 18 5 20 -23 9 -18 -7 -29 -6 -37 2 -8 8 -11 8 -11 -2z"/>
<path d="M1625 260 c3 -5 11 -10 16 -10 6 0 7 5 4 10 -3 6 -11 10 -16 10 -6 0
-7 -4 -4 -10z"/>
<path d="M1208 233 c7 -3 16 -2 19 1 4 3 -2 6 -13 5 -11 0 -14 -3 -6 -6z"/>
<path d="M2925 5920 c-4 -7 -18 -10 -31 -7 -13 2 -24 0 -24 -6 0 -6 -3 -7 -7
-4 -3 4 -15 -1 -25 -10 -19 -17 -20 -16 -37 5 -11 15 -23 21 -34 16 -15 -5
-11 -13 24 -55 22 -26 39 -54 38 -61 -4 -29 2 -38 26 -38 16 0 25 6 25 15 0 8
-3 15 -7 15 -5 0 -13 12 -20 26 -11 23 -10 24 9 18 14 -4 18 -2 14 5 -4 6 -1
11 8 11 8 0 18 -4 21 -10 3 -5 12 -10 19 -10 18 0 26 45 12 61 -8 9 -7 10 7 6
14 -5 18 -3 15 10 -4 20 -24 28 -33 13z"/>
<path d="M3633 5905 c-3 -9 -3 -18 -1 -21 3 -3 8 4 11 16 6 23 -1 27 -10 5z"/>
<path d="M4292 5890 c14 -22 24 -19 15 5 -4 8 -11 15 -17 15 -6 0 -6 -7 2 -20z"/>
<path d="M3966 5887 c3 -10 9 -15 12 -12 3 3 0 11 -7 18 -10 9 -11 8 -5 -6z"/>
<path d="M4000 5890 c0 -5 7 -10 16 -10 8 0 12 5 9 10 -3 6 -10 10 -16 10 -5
0 -9 -4 -9 -10z"/>
<path d="M4247 5880 c3 -11 7 -20 9 -20 2 0 4 9 4 20 0 11 -4 20 -9 20 -5 0
-7 -9 -4 -20z"/>
<path d="M3770 5860 c0 -5 5 -10 10 -10 6 0 10 5 10 10 0 6 -4 10 -10 10 -5 0
-10 -4 -10 -10z"/>
<path d="M4473 5809 c-17 -17 -4 -46 28 -59 15 -7 52 -13 82 -14 l54 -1 -28
28 c-33 32 -35 33 -42 7 -7 -28 -27 -25 -27 5 0 14 -4 25 -10 25 -5 0 -10 -10
-10 -22 0 -12 -3 -18 -7 -14 -5 4 -8 17 -8 29 0 24 -16 32 -32 16z"/>
<path d="M2940 5796 c0 -9 30 -14 35 -6 4 6 -3 10 -14 10 -12 0 -21 -2 -21 -4z"/>
<path d="M2920 5756 c0 -2 7 -6 15 -10 8 -3 15 -1 15 4 0 6 -7 10 -15 10 -8 0
-15 -2 -15 -4z"/>
<path d="M3785 5739 c-10 -15 3 -25 16 -12 7 7 7 13 1 17 -6 3 -14 1 -17 -5z"/>
<path d="M4438 5743 c6 -2 18 -2 25 0 6 3 1 5 -13 5 -14 0 -19 -2 -12 -5z"/>
<path d="M4335 5720 c-3 -5 -14 -10 -24 -10 -10 0 -26 -9 -36 -20 -16 -17 -11
-16 31 6 56 29 62 34 46 34 -6 0 -14 -4 -17 -10z"/>
<path d="M4337 5686 c-52 -14 -92 -45 -70 -53 9 -3 10 -10 4 -22 -9 -16 -5
-16 62 2 80 20 168 17 260 -10 116 -34 266 -134 324 -216 25 -36 26 -41 17
-97 -6 -33 -7 -60 -2 -60 13 0 36 43 49 91 11 41 10 53 -6 95 -68 180 -420
328 -638 270z"/>
<path d="M4191 5474 c0 -11 3 -14 6 -6 3 7 2 16 -1 19 -3 4 -6 -2 -5 -13z"/>
<path d="M5010 5441 c0 -6 4 -12 9 -15 5 -3 12 -18 15 -32 10 -37 30 -56 45
-41 21 21 11 44 -29 71 -22 14 -40 22 -40 17z"/>
<path d="M3037 5348 c-22 -25 -33 -46 -28 -51 9 -9 71 65 71 85 0 12 -2 11
-43 -34z"/>
<path d="M1360 5375 c0 -7 103 -75 115 -75 5 0 -1 9 -15 21 -29 23 -100 62
-100 54z"/>
<path d="M2984 5338 l-19 -23 23 19 c21 18 27 26 19 26 -2 0 -12 -10 -23 -22z"/>
<path d="M5110 5325 c0 -15 12 -46 26 -71 24 -41 28 -44 70 -44 24 0 44 2 44
5 0 10 -83 96 -112 116 l-28 20 0 -26z"/>
<path d="M4951 5200 c-13 -11 -19 -20 -14 -20 6 0 18 9 28 20 23 25 17 25 -14
0z"/>
<path d="M4994 5189 c-3 -6 -20 -19 -38 -30 -17 -10 -26 -19 -21 -19 16 0 75
39 75 50 0 13 -7 13 -16 -1z"/>
<path d="M4900 5170 c-9 -6 -10 -10 -3 -10 6 0 15 5 18 10 8 12 4 12 -15 0z"/>
<path d="M4648 5153 c6 -2 18 -2 25 0 6 3 1 5 -13 5 -14 0 -19 -2 -12 -5z"/>
<path d="M4733 5143 c15 -2 39 -2 55 0 15 2 2 4 -28 4 -30 0 -43 -2 -27 -4z"/>
<path d="M1565 5030 c3 -5 11 -10 16 -10 6 0 7 5 4 10 -3 6 -11 10 -16 10 -6
0 -7 -4 -4 -10z"/>
<path d="M2980 4721 c0 -6 4 -13 10 -16 6 -3 7 1 4 9 -7 18 -14 21 -14 7z"/>
<path d="M4455 4690 c-3 -5 -1 -10 4 -10 6 0 11 5 11 10 0 6 -2 10 -4 10 -3 0
-8 -4 -11 -10z"/>
<path d="M3130 4365 c0 -5 5 -17 10 -25 5 -8 10 -10 10 -5 0 6 -5 17 -10 25
-5 8 -10 11 -10 5z"/>
<path d="M5540 4200 c0 -10 -10 -28 -22 -39 -18 -18 -20 -24 -10 -47 7 -14 10
-29 7 -34 -6 -10 15 -62 30 -72 22 -16 23 -6 4 27 l-21 35 34 1 33 1 -27 10
c-18 6 -28 17 -28 30 0 17 5 20 31 16 l30 -5 -27 22 c-22 18 -25 24 -16 42 11
20 7 33 -10 33 -4 0 -8 -9 -8 -20z"/>
<path d="M5520 3985 c0 -12 4 -25 9 -30 5 -6 12 -36 16 -67 7 -55 6 -58 -19
-69 -45 -21 -50 -73 -26 -294 5 -49 12 -126 15 -170 4 -44 11 -95 17 -112 8
-29 14 -33 44 -33 28 0 36 5 44 26 16 42 13 505 -4 521 -3 4 -6 15 -6 25 0 10
-6 18 -14 18 -25 0 -35 25 -38 95 -1 47 -8 74 -20 89 -17 21 -17 21 -18 1z
m88 -352 c2 -8 -6 -13 -22 -13 -26 0 -40 12 -29 24 11 11 46 2 51 -11z m-18
-53 c0 -5 -4 -10 -10 -10 -5 0 -10 5 -10 10 0 6 5 10 10 10 6 0 10 -4 10 -10z"/>
<path d="M3457 3745 c3 -22 7 -42 9 -44 8 -9 2 45 -6 64 -7 14 -8 8 -3 -20z"/>
<path d="M1883 3737 c-33 -10 -44 -32 -20 -40 18 -6 65 12 71 28 7 19 -13 23
-51 12z"/>
<path d="M3441 3714 c0 -11 3 -14 6 -6 3 7 2 16 -1 19 -3 4 -6 -2 -5 -13z"/>
<path d="M1858 3654 c-38 -20 -36 -38 4 -30 33 6 58 23 58 37 0 14 -32 10 -62
-7z"/>
<path d="M3656 3537 c3 -10 9 -15 12 -12 3 3 0 11 -7 18 -10 9 -11 8 -5 -6z"/>
<path d="M4240 3390 c0 -5 5 -10 11 -10 5 0 7 5 4 10 -3 6 -8 10 -11 10 -2 0
-4 -4 -4 -10z"/>
<path d="M5380 3364 c0 -12 -6 -15 -25 -10 -25 6 -25 5 -25 -54 0 -43 4 -60
13 -60 18 0 39 -69 27 -89 -7 -12 7 -31 58 -79 54 -51 58 -57 22 -31 -37 27
-41 28 -24 8 32 -38 65 -99 58 -110 -3 -6 -1 -15 4 -22 5 -7 12 -36 14 -65 3
-30 12 -61 21 -69 14 -15 15 -11 12 40 -3 51 -1 57 16 57 13 0 37 -28 75 -85
49 -75 78 -105 98 -105 14 0 4 30 -24 68 -16 23 -30 46 -30 51 0 5 -16 26 -36
47 -20 22 -43 53 -51 69 -9 17 -29 46 -44 65 -37 47 -66 124 -89 237 -20 95
-43 153 -60 153 -6 0 -10 -7 -10 -16z"/>
<path d="M4685 3310 c-8 -13 5 -13 25 0 13 8 13 10 -2 10 -9 0 -20 -4 -23 -10z"/>
<path d="M4685 3210 c-3 -5 -1 -10 4 -10 6 0 11 5 11 10 0 6 -2 10 -4 10 -3 0
-8 -4 -11 -10z"/>
<path d="M4650 3202 c0 -4 8 -14 18 -23 33 -28 40 -30 35 -9 -3 11 -12 20 -19
20 -8 0 -14 5 -14 10 0 6 -4 10 -10 10 -5 0 -10 -3 -10 -8z"/>
<path d="M5190 2996 c0 -17 48 -76 61 -76 11 0 12 40 1 56 -7 11 -45 34 -56
34 -3 0 -6 -6 -6 -14z"/>
<path d="M4563 2933 c9 -2 23 -2 30 0 6 3 -1 5 -18 5 -16 0 -22 -2 -12 -5z"/>
<path d="M4590 2840 c20 -13 33 -13 25 0 -3 6 -14 10 -23 10 -15 0 -15 -2 -2
-10z"/>
<path d="M5689 2601 c24 -23 48 -41 54 -41 13 0 -48 55 -78 71 -11 5 0 -8 24
-30z"/>
<path d="M5760 2556 c0 -9 59 -90 125 -171 36 -44 78 -107 94 -140 16 -33 30
-54 30 -47 1 21 -35 86 -89 158 -53 71 -59 88 -35 98 12 4 7 13 -22 39 -36 32
-103 73 -103 63z"/>
<path d="M6080 2169 c0 -12 -8 -23 -20 -26 -23 -6 -25 -24 -9 -56 16 -31 16
-31 34 -13 9 9 29 16 44 16 36 0 43 8 29 34 -29 57 -78 85 -78 45z"/>
<path d="M6170 2014 c0 -3 4 -14 10 -24 8 -14 5 -27 -13 -54 -29 -45 -42 -50
-67 -24 -14 15 -20 17 -20 7 0 -31 41 -182 65 -239 31 -73 51 -176 61 -305 11
-151 27 -102 29 92 1 92 6 227 10 298 7 136 3 158 -45 233 -14 20 -30 30 -30
16z"/>
<path d="M4830 496 c0 -2 7 -7 16 -10 8 -3 12 -2 9 4 -6 10 -25 14 -25 6z"/>
<path d="M4882 464 c10 -10 20 -15 24 -12 3 4 -5 12 -18 18 -22 12 -22 12 -6
-6z"/>
<path d="M4800 400 c8 -5 20 -10 25 -10 6 0 3 5 -5 10 -8 5 -19 10 -25 10 -5
0 -3 -5 5 -10z"/>
<path d="M4973 288 c4 -12 -3 -14 -36 -11 -23 2 -47 6 -54 8 -7 2 -10 -2 -6
-11 3 -9 12 -13 21 -9 9 3 13 3 9 -1 -4 -4 -2 -13 4 -20 16 -19 -7 -28 -31
-11 -11 8 -17 17 -12 22 4 4 -1 5 -11 2 -10 -4 -25 -7 -33 -7 -8 0 -11 -6 -7
-16 5 -13 2 -15 -15 -10 -27 9 -39 -12 -16 -29 25 -19 49 -19 68 1 9 8 16 11
16 6 0 -11 45 -32 73 -33 12 0 16 -3 10 -6 -7 -2 -13 -9 -13 -15 0 -6 7 -5 16
3 21 17 85 39 96 33 4 -3 8 -13 8 -22 1 -13 4 -11 14 7 8 15 16 20 20 12 4 -6
2 -11 -4 -11 -6 0 -8 -5 -5 -11 4 -6 14 -8 22 -4 13 4 13 3 4 -9 -9 -11 -7
-15 10 -19 11 -3 18 -10 15 -16 -4 -6 -2 -20 4 -31 6 -11 7 -20 1 -20 -5 0
-11 7 -15 15 -7 19 -45 19 -73 0 -15 -10 -24 -12 -28 -5 -4 7 -11 8 -18 2 -20
-16 -87 -42 -87 -33 0 4 11 21 25 37 19 23 25 25 25 11 0 -15 3 -15 20 -5 11
7 20 16 20 20 0 5 -9 8 -20 8 -11 0 -20 5 -20 10 0 7 -6 7 -17 1 -10 -5 -26
-12 -37 -15 -15 -5 -16 -9 -6 -21 13 -16 9 -18 -32 -15 -15 1 -36 -4 -48 -10
-17 -9 -19 -14 -9 -26 6 -8 20 -14 30 -14 10 0 21 -5 25 -11 6 -11 62 -7 100
8 12 4 15 3 10 -5 -4 -7 -3 -12 3 -12 5 0 13 5 16 10 3 6 11 10 16 10 6 0 7
-5 4 -10 -4 -7 71 -10 217 -10 l223 0 15 25 c11 18 19 22 30 15 13 -8 13 -10
-1 -10 -9 0 -16 -6 -16 -14 0 -11 42 -14 232 -15 l231 -2 11 34 c10 33 10 34
-20 35 -18 0 -36 -6 -44 -16 -11 -15 -14 -15 -22 -2 -9 12 -50 16 -135 11 -4
-1 -6 -9 -4 -19 4 -15 0 -17 -24 -14 -15 2 -35 -1 -43 -8 -10 -9 -15 -9 -15
-1 0 6 5 11 10 11 6 0 10 8 10 18 0 14 2 15 10 2 7 -12 12 -12 22 -2 8 8 9 12
1 12 -7 0 -13 10 -15 22 -2 15 -11 24 -26 26 -12 2 -20 8 -16 13 3 6 -2 16
-12 24 -16 12 -22 11 -38 -3 -18 -16 -19 -16 -14 5 5 17 2 20 -11 15 -14 -5
-14 -4 -1 13 14 17 13 18 -3 12 -13 -5 -17 -3 -14 5 2 7 9 12 15 11 6 -2 9 4
6 11 -3 9 -12 12 -22 9 -12 -5 -14 -2 -9 13 5 13 -3 8 -22 -13 -21 -22 -32
-28 -40 -20 -8 8 -11 8 -11 0 0 -6 -8 -14 -17 -16 -13 -3 -11 -5 6 -6 13 0 21
-4 17 -8 -4 -4 -23 -6 -42 -4 -36 3 -42 -6 -21 -29 10 -12 9 -12 -8 0 -11 8
-22 16 -24 17 -2 1 2 11 10 20 13 16 12 17 -3 4 -10 -7 -18 -10 -18 -6 0 4 -6
2 -14 -4 -11 -9 -15 -8 -20 5 -4 10 -2 21 4 24 8 5 6 9 -5 13 -9 4 -14 3 -12
-1 3 -4 1 -17 -4 -30 -7 -17 -15 -22 -41 -20 -18 1 -41 -2 -51 -7 -17 -7 -18
-6 -5 14 8 13 20 20 31 17 9 -2 17 0 17 5 0 5 -4 9 -9 9 -5 0 -17 3 -27 7 -11
4 -15 3 -11 -4 4 -6 0 -14 -9 -17 -24 -9 -28 -7 -15 8 9 10 9 21 0 42 -11 26
-12 27 -18 9 -6 -21 -51 -30 -51 -11 0 6 -8 2 -17 -9 -15 -20 -15 -20 -11 1 3
13 0 21 -8 21 -8 0 -14 -3 -14 -7 0 -4 -6 -7 -14 -7 -8 0 -12 6 -9 15 8 18
-19 35 -29 19 -5 -8 -11 -8 -15 -2 -5 6 -19 16 -32 23 -20 12 -23 12 -18 0z
m552 -117 c-3 -6 -11 -11 -17 -11 -6 0 -6 6 2 15 14 17 26 13 15 -4z m-207
-32 c12 0 22 -4 22 -10 0 -14 -60 -4 -75 13 -7 8 -5 9 10 3 11 -4 30 -7 43 -6z
m137 -19 c3 -5 1 -10 -4 -10 -6 0 -11 5 -11 10 0 6 2 10 4 10 3 0 8 -4 11 -10z
m-162 -43 c4 3 7 1 7 -5 0 -20 -24 -13 -39 11 -13 21 -13 22 6 4 11 -9 23 -14
26 -10z m173 -40 c-2 -7 -5 -4 -5 6 -1 9 -6 17 -12 17 -5 0 -7 5 -3 11 9 15
28 -16 20 -34z m130 22 c19 -22 19 -22 -3 -10 -13 6 -23 16 -23 21 0 15 5 12
26 -11z m-62 -4 c25 -19 9 -19 -24 0 -14 8 -19 14 -10 14 8 0 24 -6 34 -14z
m416 -5 c0 -5 -2 -10 -4 -10 -3 0 -8 5 -11 10 -3 6 -1 10 4 10 6 0 11 -4 11
-10z m-505 -21 c11 -16 1 -19 -13 -3 -7 8 -8 14 -3 14 5 0 13 -5 16 -11z m145
-4 c0 -12 -19 -12 -23 0 -4 9 -1 12 9 8 7 -3 14 -7 14 -8z m215 -4 c-3 -6 -11
-11 -17 -11 -6 0 -6 6 2 15 14 17 26 13 15 -4z"/>
<path d="M5080 274 c0 -8 5 -12 10 -9 6 4 8 11 5 16 -9 14 -15 11 -15 -7z"/>
<path d="M5250 261 c0 -5 -3 -16 -6 -24 -4 -10 2 -14 21 -14 35 0 39 12 10 31
-14 9 -25 12 -25 7z"/>
<path d="M5506 245 c-11 -16 -12 -23 -3 -20 16 7 40 45 28 45 -5 0 -16 -11
-25 -25z"/>
<path d="M5350 240 c0 -5 5 -10 10 -10 6 0 10 5 10 10 0 6 -4 10 -10 10 -5 0
-10 -4 -10 -10z"/>
<path d="M5380 209 c0 -5 5 -7 10 -4 6 3 10 8 10 11 0 2 -4 4 -10 4 -5 0 -10
-5 -10 -11z"/>
<path d="M5290 199 c0 -5 5 -7 10 -4 6 3 10 8 10 11 0 2 -4 4 -10 4 -5 0 -10
-5 -10 -11z"/>
<path d="M5056 125 c-3 -8 -12 -12 -21 -9 -11 5 -14 2 -9 -10 3 -9 9 -16 14
-16 8 0 40 34 40 43 0 13 -18 7 -24 -8z"/>
<path d="M5688 133 c7 -3 16 -2 19 1 4 3 -2 6 -13 5 -11 0 -14 -3 -6 -6z"/>
<path d="M5820 125 c-7 -8 -9 -15 -5 -15 4 0 2 -7 -5 -15 -11 -13 -7 -15 29
-15 41 0 55 13 26 24 -8 3 -14 11 -13 17 5 18 -18 21 -32 4z"/>
<path d="M5715 91 c-6 -11 9 -23 19 -14 9 9 7 23 -3 23 -6 0 -12 -4 -16 -9z"/>
<path d="M6340 83 c0 -7 3 -13 8 -13 4 0 23 -4 43 -9 32 -7 36 -6 32 9 -6 22
-83 34 -83 13z"/>
<path d="M4125 24 c-45 -23 -43 -24 26 -24 l64 1 -24 19 c-28 24 -28 24 -66 4z"/>
<path d="M5980 29 c0 -5 5 -7 10 -4 6 3 10 8 10 11 0 2 -4 4 -10 4 -5 0 -10
-5 -10 -11z"/>
<path d="M6135 10 c-17 -7 -15 -9 12 -9 17 -1 35 4 38 9 7 12 -22 12 -50 0z"/>
</g>
</svg>
